<svg width="24" height="24" viewBox="0 0 24 24" fill="none" xmlns="http://www.w3.org/2000/svg">
<path d="M3.94232 20.3739V10.8943C3.94232 10.3707 3.5179 9.94629 2.99435 9.94629C2.47081 9.94629 2.04639 10.3707 2.04639 10.8943V20.3739C2.04639 20.8975 2.47081 21.3219 2.99435 21.3219C3.5179 21.3219 3.94232 20.8975 3.94232 20.3739Z" stroke="#B6B6B6" stroke-linecap="round"/>
<path d="M7.49675 18.4774L5.60082 18.4779C5.46991 18.4779 5.36377 18.3718 5.36377 18.2409V16.932C5.36377 16.7644 5.53306 16.6497 5.68873 16.7119L7.58466 17.4698C7.67466 17.5058 7.73368 17.5929 7.73368 17.6899V18.2404C7.73368 18.3713 7.62762 18.4774 7.49675 18.4774Z" fill="#B6B6B6"/>
<path d="M14.1332 18.4773H9.86736C9.73648 18.4773 9.63037 18.3712 9.63037 18.2403V17.7663C9.63037 17.6354 9.73648 17.5293 9.86736 17.5293H14.1332C14.2641 17.5293 14.3702 17.6354 14.3702 17.7663V18.2403C14.3702 18.3712 14.2641 18.4773 14.1332 18.4773Z" fill="#B6B6B6"/>
<path d="M16.5075 18.4788L18.3995 18.4781C18.5303 18.478 18.6364 18.3719 18.6364 18.241L18.6363 16.9324C18.6362 16.7646 18.4667 16.65 18.311 16.7125L16.4191 17.4713C16.3292 17.5073 16.2703 17.5945 16.2703 17.6913L16.2704 18.2419C16.2704 18.3728 16.3766 18.4789 16.5075 18.4788Z" fill="#B6B6B6"/>
<path d="M21.9535 20.3739V10.8943C21.9535 10.3707 21.5291 9.94629 21.0056 9.94629C20.482 9.94629 20.0576 10.3707 20.0576 10.8943V20.3739C20.0576 20.8975 20.482 21.3219 21.0056 21.3219C21.5291 21.3219 21.9535 20.8975 21.9535 20.3739Z" stroke="#B6B6B6" stroke-linecap="round"/>
<path d="M10.5777 10.5283C11.5257 10.5283 11.5257 10.9659 11.9997 10.9659C12.4736 10.9659 12.4736 10.5283 13.4216 10.5283C14.3696 10.5283 14.8436 10.9657 14.8436 11.8407V13.445C14.8436 14.7576 13.8956 15.6327 11.9997 15.6327C10.1037 15.6327 9.15576 14.7576 9.15576 13.445V11.8407C9.15576 10.9657 9.62974 10.5283 10.5777 10.5283Z" stroke="#B6B6B6" stroke-linecap="round"/>
<path d="M9.1562 12.79H3.94238V14.212C5.83831 15.16 6.3123 16.1079 6.3123 17.5299H12.0001" stroke="#B6B6B6" stroke-linecap="round"/>
<path d="M14.8438 12.79H20.0576V14.212C18.1617 15.16 17.6877 16.1079 17.6877 17.5299H11.9999" stroke="#B6B6B6" stroke-linecap="round"/>
<path d="M3.94238 16.582H5.83831" stroke="#B6B6B6" stroke-linecap="round"/>
<path d="M18.1616 16.582H20.0576" stroke="#B6B6B6" stroke-linecap="round"/>
<path d="M6.31214 12.7901C6.31214 9.94616 5.83815 6.1543 11.9999 6.1543C18.1617 6.1543 17.6877 9.94616 17.6877 12.7901" stroke="#B6B6B6" stroke-linecap="round"/>
<path d="M7.74069 12.7887C7.74069 10.7573 7.38572 8.04883 12.0002 8.04883C16.6148 8.04883 16.2598 10.7573 16.2598 12.7887" stroke="#B6B6B6" stroke-linecap="round"/>
<path d="M7.11426 14.3301H7.73469" stroke="#B6B6B6" stroke-linecap="round"/>
<path d="M16.2656 14.3301H16.9713" stroke="#B6B6B6" stroke-linecap="round"/>
<path d="M10.5776 10.8936V15.1594" stroke="#B6B6B6" stroke-width="0.5" stroke-linecap="round"/>
<path d="M12 11.4277V15.1604" stroke="#B6B6B6" stroke-width="0.5" stroke-linecap="round"/>
<path d="M13.4224 10.8936V15.1594" stroke="#B6B6B6" stroke-width="0.5" stroke-linecap="round"/>
<path d="M9.63037 3.7846C10.5783 3.3098 13.4222 3.31036 14.3702 3.7846V6.15453H9.63037L9.63037 3.7846Z" stroke="#B6B6B6" stroke-linecap="round"/>
</svg>
