<svg width="20" height="20" viewBox="0 0 20 20" fill="none" xmlns="http://www.w3.org/2000/svg">
<path d="M17.1875 5C17.7053 5 18.125 4.58027 18.125 4.0625C18.125 3.54473 17.7053 3.125 17.1875 3.125C16.6697 3.125 16.25 3.54473 16.25 4.0625C16.25 4.58027 16.6697 5 17.1875 5Z" fill="#B6B6B6"/>
<path d="M15.3125 2.5C15.8303 2.5 16.25 2.08027 16.25 1.5625C16.25 1.04473 15.8303 0.625 15.3125 0.625C14.7947 0.625 14.375 1.04473 14.375 1.5625C14.375 2.08027 14.7947 2.5 15.3125 2.5Z" fill="#B6B6B6"/>
<path d="M15.3125 8.75C15.8303 8.75 16.25 8.33027 16.25 7.8125C16.25 7.29473 15.8303 6.875 15.3125 6.875C14.7947 6.875 14.375 7.29473 14.375 7.8125C14.375 8.33027 14.7947 8.75 15.3125 8.75Z" fill="#B6B6B6"/>
<path d="M7.49983 18.75H11.2498M9.37483 13.75C15.1795 13.75 11.117 1.25 11.117 1.25H7.63265C7.63265 1.25 3.57015 13.75 9.37483 13.75ZM9.37483 13.75L9.37483 18.75M6.57796 5.625H12.1717" stroke="#B6B6B6" stroke-width="1.5" stroke-linecap="round" stroke-linejoin="round"/>
</svg>
